<?xml version="1.0" encoding="UTF-8" standalone="no"?>
<svg
   xmlns:dc="http://purl.org/dc/elements/1.1/"
   xmlns:cc="http://creativecommons.org/ns#"
   xmlns:rdf="http://www.w3.org/1999/02/22-rdf-syntax-ns#"
   xmlns:svg="http://www.w3.org/2000/svg"
   xmlns="http://www.w3.org/2000/svg"
   xmlns:sodipodi="http://sodipodi.sourceforge.net/DTD/sodipodi-0.dtd"
   xmlns:inkscape="http://www.inkscape.org/namespaces/inkscape"
   version="1.0"
   width="1350.000000pt"
   height="1350.000000pt"
   viewBox="0 0 1350.000000 1350.000000"
   preserveAspectRatio="xMidYMid meet"
   id="svg890"
   sodipodi:docname="Honey comb bee.svg"
   inkscape:version="1.0.2-2 (e86c870879, 2021-01-15)">
  <defs
     id="defs894" />
  <sodipodi:namedview
     pagecolor="#ffffff"
     bordercolor="#666666"
     borderopacity="1"
     objecttolerance="10"
     gridtolerance="10"
     guidetolerance="10"
     inkscape:pageopacity="0"
     inkscape:pageshadow="2"
     inkscape:window-width="1920"
     inkscape:window-height="986"
     id="namedview892"
     showgrid="false"
     inkscape:zoom="0.38254353"
     inkscape:cx="406.7244"
     inkscape:cy="845.92178"
     inkscape:window-x="-11"
     inkscape:window-y="-11"
     inkscape:window-maximized="1"
     inkscape:current-layer="svg890" />
  <metadata
     id="metadata880">
Created by potrace 1.10, written by Peter Selinger 2001-2011
<rdf:RDF>
  <cc:Work
     rdf:about="">
    <dc:format>image/svg+xml</dc:format>
    <dc:type
       rdf:resource="http://purl.org/dc/dcmitype/StillImage" />
  </cc:Work>
</rdf:RDF>
</metadata>
  <g
     transform="translate(0.000000,1350.000000) scale(0.100000,-0.100000)"
     fill="#000000"
     stroke="none"
     id="g888">
    <path
       d="m 4502,12608 c -11,-14 -102,-168 -102,-173 0,-2 -40,-71 -90,-155 -49,-84 -90,-153 -90,-155 0,-2 -33,-59 -73,-126 -40,-68 -76,-131 -80,-139 -4,-8 -11,-22 -17,-30 -16,-25 -160,-272 -160,-275 0,-3 -112,-197 -130,-225 -5,-8 -16,-28 -25,-45 -9,-16 -48,-84 -88,-150 l -72,-120 -932,-5 c -512,-3 -933,-7 -936,-10 -3,-3 -32,-52 -66,-110 -34,-58 -66,-112 -71,-120 -6,-8 -13,-22 -17,-30 -4,-8 -24,-44 -46,-79 -21,-35 -43,-74 -48,-85 -5,-12 -18,-34 -29,-51 -11,-16 -23,-37 -27,-45 -4,-8 -32,-58 -63,-110 -31,-52 -59,-102 -63,-110 -4,-8 -16,-28 -27,-45 -11,-16 -23,-37 -27,-45 -8,-17 -178,-307 -193,-330 -6,-8 -13,-22 -17,-30 -7,-16 -117,-205 -133,-230 -6,-8 -13,-22 -17,-30 -4,-8 -33,-59 -65,-113 -32,-54 -61,-109 -64,-122 -6,-24 5,-47 91,-197 47,-81 55,-82 140,-29 69,43 70,48 19,134 -19,32 -34,67 -34,77 0,10 27,64 60,120 33,56 60,103 60,105 0,2 54,94 120,205 66,111 120,203 120,205 0,2 26,48 58,102 32,54 61,105 65,113 4,8 16,29 27,45 11,17 23,37 27,45 4,8 40,71 80,139 40,67 73,124 73,126 0,2 26,48 58,102 32,54 61,105 65,113 16,33 35,61 52,80 18,20 30,20 891,20 h 873 l 69,-117 c 39,-65 79,-134 91,-153 11,-19 24,-42 28,-50 4,-8 25,-46 48,-85 22,-38 44,-77 48,-85 4,-8 16,-28 27,-45 11,-16 23,-37 27,-45 4,-8 32,-58 63,-110 31,-52 59,-102 63,-110 4,-8 16,-28 27,-45 11,-16 24,-39 29,-51 5,-11 27,-50 48,-85 22,-35 42,-71 46,-79 4,-8 16,-28 27,-45 11,-16 23,-37 27,-45 8,-18 89,-158 103,-180 6,-8 13,-22 17,-30 4,-8 26,-47 49,-86 l 41,-70 -23,-40 c -74,-127 -77,-135 -57,-154 10,-10 43,-32 74,-49 56,-31 56,-31 74,-11 18,20 37,50 51,80 4,8 16,27 26,43 l 19,27 881,-2 880,-3 24,-40 c 13,-22 27,-47 31,-55 4,-8 26,-46 48,-85 23,-38 53,-90 67,-115 63,-114 121,-210 132,-219 7,-6 24,-2 46,9 19,11 42,22 50,26 8,4 27,16 42,26 l 28,19 -31,57 c -17,31 -39,71 -50,87 -10,17 -22,37 -26,45 -4,8 -39,69 -78,135 -39,66 -74,127 -79,135 -4,8 -15,31 -25,49 -18,35 -18,35 7,80 44,79 82,146 92,161 6,8 13,22 17,30 8,17 147,257 163,280 6,8 13,22 17,30 4,8 25,47 48,85 22,39 44,77 48,85 4,8 16,29 27,45 11,17 23,37 27,45 8,18 89,158 103,180 6,8 13,22 17,30 4,8 39,69 78,135 39,66 74,127 78,135 4,8 16,29 26,45 11,17 29,47 40,67 11,21 32,56 46,78 l 25,40 h 874 c 790,0 875,-2 887,-16 13,-16 32,-47 46,-74 9,-19 149,-260 163,-280 6,-8 13,-22 17,-30 7,-16 117,-206 133,-230 6,-8 13,-22 17,-30 4,-8 26,-46 48,-85 23,-38 44,-77 48,-85 4,-8 16,-28 27,-45 11,-16 23,-37 27,-45 8,-18 119,-208 133,-230 6,-8 13,-22 17,-30 4,-8 33,-59 65,-113 32,-54 58,-100 58,-103 0,-2 14,-26 30,-52 17,-27 30,-63 30,-79 0,-27 8,-36 66,-72 37,-23 74,-41 82,-39 15,3 39,37 65,93 15,32 12,41 -62,165 -11,19 -24,42 -28,50 -8,17 -148,257 -163,280 -6,8 -13,22 -17,30 -4,8 -25,47 -48,85 -22,39 -44,77 -48,85 -4,8 -16,29 -27,45 -11,17 -23,37 -27,45 -4,8 -26,48 -50,88 -24,40 -43,74 -43,77 0,2 -12,21 -26,42 -14,21 -30,47 -35,58 -5,11 -13,27 -19,35 -14,22 -95,163 -103,180 -4,8 -16,29 -27,45 -11,17 -23,37 -27,45 -4,8 -26,47 -48,85 -23,39 -44,77 -48,85 -4,8 -16,29 -27,45 -11,17 -23,37 -27,45 -3,8 -21,39 -40,68 l -33,52 h -930 -930 l -22,38 c -13,21 -29,47 -36,57 -6,11 -15,27 -19,35 -4,8 -32,58 -63,110 -31,52 -59,102 -63,110 -4,8 -13,24 -20,35 -7,11 -37,63 -67,115 -30,52 -60,104 -67,115 -7,11 -16,27 -20,35 -9,19 -149,260 -163,280 -6,8 -13,22 -17,30 -4,8 -32,58 -63,110 -31,52 -59,102 -63,110 -4,8 -16,29 -27,45 -11,17 -23,37 -27,45 -4,8 -32,58 -63,110 -31,52 -59,102 -63,110 -4,8 -20,38 -36,65 l -28,50 -990,3 c -785,2 -993,-1 -1001,-10 z m 1880,-195 c 14,-17 105,-168 121,-203 4,-8 16,-28 27,-45 11,-16 23,-37 27,-45 4,-8 26,-46 48,-85 23,-38 44,-77 48,-85 4,-8 11,-22 17,-30 14,-21 184,-312 193,-330 4,-8 13,-24 20,-35 7,-11 30,-51 52,-90 22,-38 45,-79 52,-90 7,-11 16,-27 20,-35 4,-8 39,-69 78,-135 39,-66 74,-127 78,-135 4,-8 17,-31 28,-50 12,-19 30,-51 41,-71 l 20,-36 -32,-59 c -18,-33 -52,-90 -75,-129 -23,-38 -45,-77 -48,-85 -4,-8 -11,-22 -17,-30 -16,-24 -155,-264 -163,-280 -4,-8 -11,-22 -17,-30 -18,-27 -160,-271 -160,-275 0,-2 -12,-21 -26,-42 -14,-21 -30,-47 -35,-58 -5,-11 -13,-27 -19,-35 -16,-24 -126,-214 -133,-230 -4,-8 -11,-22 -17,-30 -23,-34 -100,-171 -100,-177 0,-4 -10,-17 -22,-30 l -21,-23 h -874 -873 l -35,55 c -19,30 -35,56 -35,59 0,2 -27,50 -60,106 -33,56 -60,103 -60,105 0,2 -40,70 -88,152 -48,81 -91,155 -95,163 -4,8 -11,22 -17,30 -17,27 -130,222 -130,225 0,2 -27,49 -60,105 -33,56 -60,103 -60,105 0,2 -40,70 -88,152 -48,81 -91,155 -95,163 -4,8 -16,29 -26,45 -31,48 -29,53 40,170 16,28 36,64 44,80 9,17 24,44 35,60 11,17 23,37 27,45 7,14 142,248 162,280 6,8 22,38 37,65 14,28 35,62 45,76 10,15 23,37 29,50 44.5965,79.287 95.4877,167.067 135,234 39,66 74,127 78,135 4,8 11,22 17,30 5,8 37,62 70,120 33,58 65,112 70,120 6,8 13,22 17,30 3,8 15,27 25,43 l 19,27 h 873 c 819,0 874,-1 888,-17 z"
       id="path882"
       sodipodi:nodetypes="cscscscscccccsscscccssscccccssccccssssssscscssccscccscscssscccscccscccccsccccccsccccsccccssccccccscscccsssccccscccccscscccssscsccccccscscssssscccscsccccccccssssssccssscssscccccccscscsscsssscccccccscssscccscccccssscscssscsccccscccccscsccccsc" />
    <path
       d="m 4002,8973 c -52,-74 -72,-107 -72,-119 0,-8 18,-25 39,-39 114,-72 254,-219 306,-323 28,-56 65,-167 65,-197 0,-35 59,-204 91,-263 45,-81 87,-131 224,-264 122,-119 130,-139 38,-94 -208,103 -269,134 -348,175 -162,84 -336,180 -420,231 -33,20 -67,39 -75,43 -8,4 -28,16 -45,27 -16,11 -37,23 -45,27 -8,4 -46,26 -85,48 -38,23 -77,44 -85,48 -8,4 -44,23 -80,43 -142,79 -501,254 -519,254 -5,0 -22,6 -38,14 -210,102 -637,245 -893,299 -182,38 -233,46 -372,58 -385,31 -659,-64 -768,-266 -25,-45 -60,-174 -60,-221 0,-48 37,-234 58,-289 54,-142 105,-245 173,-349 22,-32 39,-60 39,-63 0,-9 96,-130 206,-258 207,-241 447,-453 714,-632 123,-83 176,-114 310,-185 44,-23 236,-106 313,-134 20,-8 54,-20 75,-28 59,-22 236,-76 251,-76 7,0 34,-6 60,-14 132,-41 489,-100 671,-111 52,-3 157,-10 233,-15 129,-9 188,-7 506,16 66,5 93,4 90,-4 -2,-6 -52,-51 -110,-100 -125,-107 -201,-202 -277,-350 -116,-223 -126,-238 -229,-339 -96,-94 -218,-182 -393,-283 -104,-60 -104,-61 -68,-128 40,-75 56,-92 76,-84 71,26 344,209 445,297 147,128 217,219 317,410 134,256 175,296 585,573 61,41 117,80 125,87 21,18 96,29 105,16 3,-6 -19,-41 -49,-77 -125,-146 -234,-359 -270,-524 -3,-14 -13,-34 -23,-45 -43,-47 -196,-240 -220,-278 -48,-76 -110,-201 -126,-257 -31,-106 -47,-177 -47,-209 0,-41 -27,-173 -47,-231 -46,-134 -120,-247 -230,-349 -49,-46 -83,-86 -81,-95 5,-24 91,-125 107,-126 20,0 231,216 274,282 64,98 110,201 127,283 19,93 31,155 45,240 17,94 37,166 64,225 30,67 76,140 87,140 8,0 14,-33 16,-102 9,-204 73,-499 164,-750 56,-154 81,-214 143,-338 336,-673 776,-788 1157,-304 35,45 64,84 64,87 0,3 13,25 29,49 56,83 211,407 211,441 0,5 6,23 13,40 19,43 58,174 90,302 37,142 75,393 80,514 1,36 7,66 12,68 24,8 116,-177 145,-292 7,-27 16,-75 20,-105 16,-119 54,-279 76,-322 8,-14 14,-31 14,-37 0,-6 24,-50 52,-98 36,-60 88,-123 168,-205 63,-65 120,-118 127,-118 14,0 91,86 106,119 10,21 7,27 -28,55 -66,52 -90,78 -147,156 -84,113 -158,287 -158,370 0,40 -25,179 -46,260 -46,173 -138,327 -320,537 -41,47 -67,87 -74,115 -7,24 -18,58 -26,76 -8,18 -14,37 -14,42 0,10 -63,142 -83,174 -52,85 -115,168 -161,216 -35,36 -52,61 -47,69 13,21 78,2 145,-43 33,-22 69,-45 78,-51 9,-5 50,-33 90,-61 40,-28 107,-74 149,-103 90,-61 199,-164 256,-241 22,-30 70,-112 106,-182 154,-300 341,-477 721,-683 45,-25 49,-25 67,-9 10,9 31,42 48,73 32,62 28,80 -20,101 -13,6 -37,19 -54,30 -16,11 -37,23 -45,27 -70,33 -285,195 -354,267 -98,103 -122,138 -210,311 -25,50 -63,116 -84,148 -49,74 -172,201 -256,263 -41,29 -63,51 -57,57 6,6 77,3 183,-7 218,-20 323,-20 563,-1 265,21 418,43 645,91 120,25 361,94 418,119 102.6215,33.0128 189.7804,70.2607 262,102 72,32 196,95 240,122 19,11 42,24 50,28 36,16 164,103 275,186 229,173 369,303 600,557 66,73 236,303 258,350 4,8 16,29 27,45 24,38 90,173 90,185 0,4 6,21 14,37 46,92 72,264 56,366 -39,256 -206,405 -501,447 -125,18 -385,4 -559,-29 -183,-36 -470,-119 -660,-191 -30,-12 -66,-25 -80,-30 -72,-24 -199,-76 -298,-121 -34,-16 -64,-29 -66,-29 -16,0 -425,-200 -551,-270 -49,-27 -97,-53 -105,-57 -17,-8 -257,-148 -280,-163 -8,-6 -22,-13 -30,-17 -8,-4 -31,-17 -51,-29 -110,-68 -677,-354 -702,-354 -13,0 21,38 98,112 64,62 136,137 159,168 87.5074,102.7987 107.6448,228.941 150,337 7,21 21,65 31,98 35,121 84,203 180,300 50,51 105,103 124,116 18,13 47,36 64,50 l 30,25 -48,73 c -40,61 -50,71 -69,65 -72,-23 -310,-252 -374,-361 -23,-39 -42,-77 -42,-85 -24.081,-41.2412 -30.5916,-92.0086 -44,-133 -8,-22 -24,-76 -36,-120 -55,-198 -86,-237 -438,-564 -164,-153 -149,-145 -196,-105 l -39,33 29,48 c 46,75 52,88 76,155 20,54 23,83 23,203 0,171 -18,232 -111,370 l -41,61 43,60 c 58.0804,89.1702 101.483,207.6903 107,300 l 2,69 h -90 -90 l -6,-45 c -11,-93 -85,-250 -116,-250 -9,0 -41,12 -71,26 -96,46 -159,59 -277,59 -121,0 -178,-12 -270,-56 -33,-16 -67,-29 -76,-29 -36,0 -119,166 -119,237 0,61 -4,63 -100,63 -49,0 -91,-4 -95,-10 -11,-17 23,-185 49,-244 14,-32 45,-86 67,-119 27,-40 39,-65 33,-73 -96,-132 -127,-205 -145,-339 -19,-144 15,-303 90,-425 17,-28 31,-54 31,-58 0,-5 -13,-21 -30,-37 -38,-37 -47,-33 -175,86 -55,51 -144,133 -199,183 -138,127 -219,241 -246,345 -50,197 -91,322 -123,375 -41,70 -107,153 -163,207 -55,51 -222,179 -234,179 -5,0 -17,-12 -28,-27 z M 1787,8550 c 188.44,-23.4069 386.2429,-77.9179 553,-130 102,-31 129,-41 215,-73 54,-20 193,-76 230,-93 17,-7 50,-22 75,-33 236,-103 474,-225 693,-354 39,-24 79,-46 87,-50 8,-4 29,-16 45,-27 17,-11 39,-24 50,-30 11,-5 27,-14 35,-20 21,-13 108,-63 188,-107 167,-91 262,-140 472,-243 124,-61 241,-120 260,-130 l 35,-19 1,-206 c 0,-183 -2,-207 -17,-215 -21,-12 -130,-29 -145,-23 -46.9309,75.9886 -2.2866,307.1736 -51,340 -15,10 -48,28 -73,38 -52,23 -446,221 -504,254 -22,13 -60,34 -85,48 -25,13 -73,40 -106,59 -33,19 -69,39 -80,44 -11,6 -32,18 -47,28 -258,168 -615,351 -968,497 -163,67 -169,69 -330,120 -271,87 -427,123 -620,145 -52,6 -110,13 -127,15 -18,2 -62,-1 -99,-7 -63,-9 -66,-9 -82,13 -43,60 -75,130 -65,140 5,4 35,14 68,22 84,22 240,21 392,-3 z m 8315,-1 c 26,-7 50,-20 53,-28 3,-8 -11,-39 -32,-70 -59,-87 -55,-84 -126,-72 -41,7 -89,8 -142,2 -44,-5 -105,-12 -135,-16 -171,-19 -565,-125 -745,-201 -16,-7 -48,-19 -70,-27 -213,-80 -609,-269 -785,-376 -19,-11 -42,-24 -50,-28 -8,-4 -80,-46 -160,-93 -80,-47 -152,-89 -160,-93 -8,-4 -33,-18 -55,-30 -82,-47 -153,-86 -240,-133 -130,-68 -441,-224 -450,-224 -4,0 -19,-9 -34,-20 -27,-19 -28,-21 -23,-97 5,-87 -12,-222 -31,-240 -13,-12 -101,-2 -152,17 -26,10 -27,12 -18,63 10,67 10,226 -1,298 l -8,57 43,20 c 24,11 51,23 59,26 8,3 22,10 30,15 8,5 116,60 240,121 228,113 290,145 415,215 39,21 86,47 105,58 19,10 49,27 65,38 17,10 37,22 45,26 8,4 69,39 135,78 66,39 127,75 135,78 8,4 31,17 50,28 125,76 381,202 635,314 35,16 174,71 228,91 20,8 54,20 75,28 20,8 84,29 142,46 58,18 122,39 143,46 20,8 48,14 62,14 14,0 42,6 62,14 45,16 126,32 283,57 132,21 337,20 412,-2 z M 5925,6419 c 186,-63 329,-186 443,-384 45,-79 92,-194 92,-227 0,-22 6,-22 -60,3 -247,92 -396,119 -665,119 -248,0 -352,-16 -565,-87 -103,-34 -150,-46 -155,-41 -13,13 86,231 143,312 75.3611,97.3688 150.1804,175.4801 244,234 45,29 89,51 148,72 91,33 274,32 375,-1 z m 60,-1225 c 173,-31 391,-104 468,-157 26,-18 27,-22 21,-70 -10.1109,-82.6508 -44.5634,-171.6992 -74,-225 l -67,23 c -407,136 -789,136 -1196,-1 l -68,-22 -13,21 c -16,25 -45,128 -56,202 -8,46 -6,52 15,69 278.8807,152.5603 651.9035,213.0205 970,160 z m 64,-1083 c 36,-9 66,-21 68,-27 6,-18 -99,-146 -162,-197 -83,-67 -133,-87 -215,-87 -82,0 -132,20 -215,87 -66,54 -164,169 -165,194 0,21 84,41 210,50 141,10 404,-1 479,-20 z"
       id="path884"
       sodipodi:nodetypes="cscsscccccscscscsccccsccscccccscccccccccccccccccccscsccccccccsccccscscccccccsccscccscccsscccccscccccccccccccscccccccccccssccccccscccscscccccccccccccccccccsccccccccscscsssccccccsccccccscccccccsccccccccccccccsccccccccccccscccccccsssccsccccccccssccccsscccccccscccccscscsccccccccccccccccscscccc" />
    <path
       d="m 1298,7069 c -41.8686,-43.8346 -65.5006,-108.1763 -91,-151 -41,-68 -77,-130 -80,-138 -4,-8 -16,-28 -27,-45 -11,-16 -23,-37 -27,-45 -4,-8 -33,-59 -65,-113 -32,-54 -58,-100 -58,-102 0,-2 -34,-61 -75,-130 -41,-70 -75,-129 -75,-131 0,-1 -16,-29 -35,-61 -19,-32 -35,-66 -35,-76 0,-15 49,-104 137,-252 7,-11 15,-27 19,-35 9,-18 120,-209 134,-230 6,-8 13,-22 17,-30 4,-8 53,-93 110,-189 57,-95 103,-175 103,-176 0,-2 33,-59 73,-126 40,-68 76,-131 80,-139 4,-8 13,-24 20,-35 7,-11 37,-63 67,-115 30,-52 60,-104 67,-115 7,-11 16,-27 20,-35 4,-8 36,-63 70,-122 l 64,-108 935,-2 936,-3 29,-50 c 16,-27 32,-57 36,-65 8,-17 118,-207 133,-230 6,-8 13,-22 17,-30 4,-8 26,-48 50,-88 24,-40 43,-74 43,-77 0,-2 12,-21 26,-42 14,-21 30,-47 35,-58 5,-11 13,-27 19,-35 14,-22 95,-163 103,-180 4,-8 16,-28 27,-45 11,-16 23,-37 27,-45 8,-18 89,-158 103,-180 6,-8 13,-22 17,-30 7,-14 143,-249 163,-280 5,-8 22,-39 37,-69 20.6513,-42.3657 50.0659,-76.4966 81,-111 h 925 925 l 29,-47 c 16,-27 33,-55 37,-63 4,-8 12,-24 19,-35 7,-11 37,-63 67,-115 30,-52 60,-104 67,-115 7,-11 16,-27 20,-35 4,-8 32,-58 63,-110 31,-52 59,-102 63,-110 4,-8 16,-28 27,-45 11,-16 23,-37 27,-45 8,-18 89,-158 103,-180 6,-8 13,-22 17,-30 8,-17 147,-257 163,-280 6,-8 13,-22 17,-30 4,-8 32,-58 63,-110 30,-52 64,-111 74,-131 10,-19 31,-53 45,-75 l 27,-39 984,-3 984,-2 23,22 c 13,12 23,25 23,29 0,7 75,140 100,179 6,8 13,22 17,30 4,8 39,69 78,135 39,66 74,127 78,135 4,8 16,29 27,45 11,17 24,39 29,51 5,11 27,50 48,85 22,35 43,71 47,79 4,8 12,24 19,35 7,11 30,51 52,90 22,38 45,79 52,90 7,11 16,27 20,35 9,18 150,260 163,280 41.841,92.4637 112.84,174.5795 140,249 0,30 34,31 944,31 589,0 924,3 936,10 10,5 35,40 56,77 21,38 44,77 51,88 7,11 15,27 19,35 9,17 180,309 194,330 6,8 13,22 17,30 4,8 25,47 48,85 22,39 44,77 48,85 4,8 16,29 27,45 11,17 23,37 27,45 4,8 40,71 80,139 40,67 73,125 73,126 0,4 144,251 160,275 6,8 13,22 17,30 4,8 26,48 50,88 26.174,57.6627 118.757,177.4031 123,228 0,8 -10,31 -23,52 -13,20 -27,44 -30,52 -4,8 -16,29 -27,45 -11,17 -23,37 -27,45 -8,18 -89,159 -103,180 -6,8 -13,22 -17,30 -4,8 -24,44 -46,79 -21,35 -43,74 -48,85 -5,12 -18,35 -29,51 -11,17 -23,37 -27,45 -4,8 -32,58 -63,110 -31,52 -59,102 -63,110 -4,8 -16,29 -27,45 -11,17 -23,37 -27,45 -4,8 -26,47 -48,85 -23,39 -44,77 -48,85 -4,8 -16,29 -27,45 -11,17 -23,37 -27,45 -3,8 -18,33 -32,55 -14,22 -36,60 -49,85 -41,74 -52,94 -72,125 -11,17 -24,39 -29,50 -6,11 -27,49 -49,85 l -38,65 -929,3 c -847,2 -930,4 -947,19 -10,9 -18,20 -18,24 0,4 -27,53 -60,109 -33,56 -60,103 -60,105 0,3 -139,243 -160,275 -5,8 -19,34 -31,58 -13,24 -30,42 -40,42 -23,0 -149,-72 -149,-86 0,-12 21,-53 50,-99 11,-16 24,-41 30,-54 6,-13 19,-35 29,-50 10,-14 31,-48 45,-76 15,-27 31,-57 37,-65 69,-110 159,-276 159,-293 -1,-12 -12,-40 -25,-62 -14,-22 -28,-47 -32,-55 -4,-8 -25,-46 -48,-85 -22,-38 -44,-77 -48,-85 -4,-8 -16,-28 -27,-45 -11,-16 -23,-37 -27,-45 -4,-8 -26,-48 -50,-88 -24,-40 -43,-74 -43,-77 0,-2 -12,-21 -26,-42 -14,-21 -30,-47 -35,-58 -5,-11 -13,-27 -19,-35 -14,-22 -95,-163 -103,-180 -4,-8 -16,-28 -27,-45 -11,-16 -23,-37 -27,-45 -4,-8 -26,-46 -48,-85 -23,-38 -44,-77 -48,-85 -4,-8 -16,-28 -27,-45 -11,-16 -23,-37 -27,-45 -8,-18 -118,-208 -133,-230 -6,-8 -14,-24 -19,-35 -19,-45 -18,-45 -467,-47 l -429,-3 -3,-92 -3,-93 h 434 c 408,0 435,-1 450,-18 10,-10 17,-21 17,-25 0,-6 78,-143 100,-177 6,-8 13,-22 17,-30 4,-8 32,-58 63,-110 31,-52 59,-102 63,-110 4,-8 11,-22 17,-30 14,-22 125,-212 133,-230 4,-8 16,-28 27,-45 11,-16 24,-41 30,-54 6,-13 19,-35 29,-50 10,-14 31,-50 47,-79 16,-29 34,-61 39,-70 6,-9 35,-60 65,-112 30,-52 60,-104 67,-115 7,-11 17,-29 23,-40 6,-11 19,-33 30,-50 11,-16 23,-37 27,-45 4,-8 19,-37 35,-63 15,-26 28,-57 28,-67 0,-19 -23,-66 -61,-125 -10,-16 -22,-37 -26,-45 -4,-8 -32,-58 -63,-110 -31,-52 -59,-102 -63,-110 -4,-8 -16,-28 -27,-45 -11,-16 -23,-37 -27,-45 -4,-8 -25,-46 -48,-85 -22,-38 -44,-77 -48,-85 -4,-8 -16,-28 -27,-45 -11,-16 -23,-37 -27,-45 -4,-8 -33,-59 -65,-113 -32,-54 -58,-100 -58,-102 0,-2 -26,-48 -58,-102 -32,-54 -61,-105 -65,-113 -4,-8 -16,-28 -27,-45 -11,-16 -23,-37 -27,-45 -8,-18 -89,-158 -103,-180 -6,-8 -14,-25 -20,-37 -5,-12 -18,-27 -29,-32 -21,-12 -1716,-16 -1745,-5 -9,3 -30,31 -48,63 -18,31 -38,65 -45,76 -7,11 -15,27 -19,35 -4,8 -25,44 -47,79 -21,35 -43,74 -48,85 -5,12 -18,35 -28,51 -20,31 -50,83 -84,145 -10,19 -27,49 -38,65 -10,17 -22,37 -26,45 -4,8 -32,58 -63,110 -31,52 -59,102 -63,110 -4,8 -16,29 -27,45 -11,17 -24,39 -29,51 -5,11 -27,50 -48,85 -22,35 -42,71 -46,79 -4,8 -16,29 -27,45 -11,17 -23,37 -27,45 -4,8 -32,58 -63,110 -31,52 -59,102 -64,110 -4,8 -15,31 -25,49 -18,35 -18,35 7,80 44,79 82,146 92,161 6,8 13,22 17,30 4,8 46,80 93,160 47,80 89,152 93,160 4,8 13,24 20,35 7,11 30,51 52,90 22,38 45,79 52,90 7,11 16,27 20,35 4,8 40,71 81,140 79,134 80,140 26,169 -16,9 -40,24 -54,34 -31,22 -69,22 -77,0 -7,-17 -82,-150 -103,-183 -6,-8 -13,-22 -17,-30 -4,-8 -39,-69 -78,-135 -39,-66 -74,-127 -78,-135 -4,-8 -16,-28 -27,-45 -11,-16 -24,-39 -29,-51 -5,-11 -27,-50 -48,-85 -22,-35 -42,-71 -46,-79 -4,-8 -17,-31 -28,-50 -12,-19 -46,-78 -76,-130 -31,-52 -63,-103 -71,-112 -14,-17 -69,-18 -889,-18 h -873 l -35,55 c -19,30 -35,56 -35,59 0,4 -109,194 -130,226 -6,8 -13,22 -17,30 -4,8 -39,69 -78,135 -39,66 -74,127 -78,135 -4,8 -13,24 -20,35 -7,11 -37,63 -67,115 -30,52 -60,104 -67,115 -7,11 -16,27 -20,35 -4,8 -39,69 -78,135 -39,66 -74,127 -78,135 -4,8 -13,24 -20,35 -7,11 -33,56 -58,100 -102,176 -100,170 -68,220 10,17 22,37 26,45 4,8 35,63 70,122 35,59 63,112 63,118 -21.1318,42.5243 -67.5966,54.5088 -100,75 -71.7582,53.3513 -83.329,-21.8006 -116,-77 -32,-56 -64,-111 -71,-122 -7,-12 -15,-28 -19,-36 -4,-8 -18,-30 -31,-47 l -24,-33 h -868 -868 l -20,23 c -11,12 -23,29 -27,37 -3,8 -15,29 -26,45 -11,17 -23,37 -27,45 -8,17 -148,258 -163,280 -6,8 -13,22 -17,30 -4,8 -26,47 -48,85 -23,39 -44,77 -48,85 -4,8 -16,29 -27,45 -11,17 -23,37 -27,45 -7,14 -143,249 -163,280 -5,8 -19,33 -31,55 -11,22 -34,59 -50,83 -16,24 -29,45 -29,47 0,2 -26,47 -58,102 -32,54 -61,105 -65,113 -4,8 -18,33 -32,55 -13,22 -24,50 -25,62 0,12 26,66 58,120 32,54 61,105 65,113 4,8 16,29 27,45 11,17 23,37 27,45 6,13 165,286 193,330 5,8 21,38 36,65 14,28 35,62 45,76 10,15 23,37 29,50 5,13 16,32 22,42 16,22 3,44 -38,66 -16,9 -40,24 -54,34 -28,19 -38,21 -62,6 z M 11972,5968 c 9,-7 27,-32 40,-56 13,-24 28,-51 33,-60 6,-9 35,-60 65,-112 30,-52 60,-104 67,-115 7,-11 16,-27 20,-35 4,-8 32,-58 63,-110 31,-52 59,-102 63,-110 4,-8 16,-28 27,-45 11,-16 24,-39 30,-50 6,-11 16,-29 23,-40 7,-11 30,-52 52,-90 22,-39 45,-79 52,-90 7,-11 16,-27 20,-35 4,-8 32,-58 63,-110 31,-52 59,-102 63,-110 4,-8 11,-22 17,-30 46,-70 170,-292 170,-306 0,-14 -27,-66 -77,-149 -7,-11 -16,-27 -20,-35 -4,-8 -32,-58 -63,-110 -31,-52 -59,-102 -63,-110 -4,-8 -11,-22 -17,-30 -15,-22 -155,-263 -163,-280 -4,-8 -16,-28 -27,-45 -11,-16 -23,-37 -27,-45 -4,-8 -39,-69 -78,-135 -39,-66 -74,-127 -78,-135 -4,-8 -11,-22 -17,-30 -15,-24 -125,-214 -133,-230 -4,-8 -16,-28 -26,-45 -11,-16 -29,-48 -41,-70 -12,-22 -29,-46 -38,-52 -21,-17 -1722,-19 -1753,-2 -11,5 -24,20 -30,32 -5,12 -18,36 -29,52 -11,17 -23,37 -27,45 -4,8 -32,58 -63,110 -31,52 -59,102 -63,110 -4,8 -16,29 -27,45 -11,17 -23,37 -27,45 -4,8 -24,44 -46,79 -21,35 -43,74 -48,85 -5,12 -18,35 -29,51 -11,17 -24,39 -30,50 -5,11 -14,27 -20,35 -16,26 -126,214 -133,230 -4,8 -11,22 -17,30 -5,8 -37,62 -70,120 -33,58 -65,112 -70,120 -6,8 -15,24 -20,35 -6,11 -19,34 -30,50 -11,17 -24,40 -29,52 -6,12 -22,40 -36,62 -14,22 -25,52 -25,65 0,14 20,59 45,99 25,41 45,77 45,80 0,4 12,23 26,44 14,21 30,47 35,58 5,11 13,27 19,35 14,22 95,163 103,180 4,8 16,29 27,45 11,17 23,37 27,45 4,8 39,69 78,135 39,66 74,127 78,135 4,8 11,22 17,30 5,8 37,62 70,120 33,58 65,112 70,120 6,8 13,22 17,30 4,8 39,69 78,135 39,66 74,127 78,135 14,28 33,58 46,74 12,14 96,16 880,16 679,0 871,-3 883,-12 z"
       id="path886"
       sodipodi:nodetypes="ccccssscssscscscscssssscccccccssssscccccsccccccssssssscccccscccccccscssscccsscssccsccsccscscscscscccccccscccssscscsccscccccccsssccsscscccccscscssssscccscsccccccccscscssscccscscssscscscssscscscssssscccccccsscccccssscccscssccccsssscsscccccssscccscccsccscssssssssssccssccccscccccccccscscsccsscsccsscccccccccccscssssscsscsssscscssscccssscscsccccssscscccccccsccccsscssscccssscscssscsc" />
  </g>
</svg>
